<svg viewBox="0 0 97 20" xmlns="http://www.w3.org/2000/svg"><path d="m29.084 13.298-4.154 6.65-4.156-6.65h8.31Z" fill="#69AEE0"/><path d="m16.62 19.948 4.154-6.65 4.155 6.65h-8.31Z" fill="#70B1E1"/><path d="m20.774 13.298-4.154 6.65-4.155-6.65h8.309Z" fill="#92CAEF"/><path d="m8.31 19.948 4.155-6.65 4.155 6.65H8.31Z" fill="#92CAEF"/><path d="m0 19.948 4.155-6.65 4.155 6.65H0Z" fill="#7EBAE6"/><path d="m33.24 6.65-4.155 6.648L24.93 6.65h8.31Z" fill="#85C1EB"/><path d="M20.774 13.298 24.93 6.65l4.154 6.648h-8.309Z" fill="#7EBAE6"/><path d="m24.93 6.65-4.155 6.648L16.62 6.65h8.31Z" fill="#7BB8E5"/><path d="M12.465 13.298 16.62 6.65l4.154 6.648h-8.31Z" fill="#85C1EB"/><path d="m16.62 6.65-4.155 6.648L8.31 6.65h8.31Z" fill="#73B2E2"/><path d="M4.155 13.298 8.31 6.65l4.154 6.648h-8.31Z" fill="#67A0D3"/><path d="M24.93 6.65 29.084 0l4.156 6.65h-8.31Z" fill="#99D2F3"/><path d="M16.62 6.65 20.774 0l4.155 6.65h-8.31Z" fill="#82BEE9"/><path d="M8.31 6.65 12.465 0l4.155 6.65H8.31Z" fill="#73B2E2"/><path d="M12.464 0 8.31 6.65 4.155 0h8.309Z" fill="#65A5DA"/><path d="M70.83 12.694v6.891h1.035v-4.404L76.632 20v-6.891h-1.088v4.404l-4.715-4.819Zm13.047 2.718c.12.293.18.603.18.929 0 .322-.06.63-.18.924a2.39 2.39 0 0 1-1.277 1.303c-.282.12-.58.18-.894.18a2.305 2.305 0 0 1-1.668-.704 2.392 2.392 0 0 1-.687-1.703c0-.33.059-.64.176-.934.118-.293.288-.553.511-.779a2.32 2.32 0 0 1 .762-.524 2.327 2.327 0 0 1 2.566.524c.223.23.393.49.51.784Zm1.012 2.227c.173-.408.26-.84.26-1.298a3.35 3.35 0 0 0-1.008-2.4 3.414 3.414 0 0 0-1.118-.73 3.478 3.478 0 0 0-1.317-.251c-.466 0-.908.083-1.325.25a3.413 3.413 0 0 0-1.866 1.828 3.35 3.35 0 0 0-.255 1.303c0 .463.085.898.255 1.303.17.405.42.767.748 1.087.323.317.694.562 1.114.735.423.17.866.255 1.33.255.457 0 .895-.085 1.311-.255.417-.17.791-.415 1.123-.735a3.27 3.27 0 0 0 .748-1.092Zm7.55-4.534v6.48h3.572V18.55h-2.643v-1.917h2.642V15.7h-2.642v-1.606h2.642v-.988h-3.57Zm-53.9 2.776h-.4v-1.849h.4c.447 0 .509.051.63.153l.079.063c.19.14.286.387.286.74 0 .322-.104.553-.313.69a1.826 1.826 0 0 0-.094.068c-.12.09-.18.135-.588.135Zm-.136 2.848h-.264v-2.055h.581c.21 0 .38.011.506.035.129.023.243.06.343.11.159.085.28.204.366.356.085.153.127.332.127.537 0 .174-.035.332-.105.476a.851.851 0 0 1-.3.343c-.105.074-.25.125-.431.154-.182.03-.456.044-.823.044Zm-1.29-5.62v6.496h1.48c.616 0 1.054-.036 1.315-.11.262-.073.396-.2.572-.378l.032-.032c.161-.158.355-.347.44-.567a2.04 2.04 0 0 0 .136-.744c0-.431-.108-.788-.325-1.07-.215-.284-.717-.508-1.093-.567.303-.09.448-.25.607-.48.158-.231.196-.477.196-.82 0-.288-.056-.551-.167-.789a1.449 1.449 0 0 0-.51-.612c-.139-.103-.279-.207-.479-.252-.22-.05-.562-.075-1.026-.075h-1.178Zm10.04 0h1.034v4.197c0 .58.133.787.4 1.08.27.29.508.37 1.042.37.531 0 .684-.08.95-.37.27-.293.406-.5.406-1.08v-4.197h1.047v4.062c0 .872-.282 1.462-.722 1.896-.44.432-.795.71-1.681.71s-1.321-.278-1.758-.71c-.438-.431-.719-1.021-.719-1.896v-4.062Zm-4.355 6.496v-6.444h1.048v5.44h1.906v1.004h-2.954Zm20.508-3.724h.4c.408 0 .468-.045.588-.135.027-.02.057-.043.094-.067.209-.138.313-.369.313-.691 0-.353-.095-.6-.286-.74a1.874 1.874 0 0 1-.078-.063c-.122-.102-.183-.153-.63-.153h-.401v1.85Zm0 2.848h.264c.367 0 .641-.014.823-.044.182-.029.326-.08.431-.154a.85.85 0 0 0 .3-.343c.07-.144.105-.302.105-.476 0-.205-.042-.384-.127-.537a.892.892 0 0 0-.366-.356c-.1-.05-.214-.087-.343-.11a2.886 2.886 0 0 0-.506-.035h-.581v2.055Zm-1.026.876V13.11h1.179c.463 0 .805.025 1.025.075.2.045.34.149.48.252l.047.036c.2.146.354.338.462.576.112.238.167.5.167.788 0 .344-.037.59-.196.822-.159.229-.304.389-.606.48.375.058.877.282 1.092.566.217.282.325.639.325 1.07 0 .261-.045.51-.136.744-.085.22-.279.41-.44.567l-.002.002-.02.019-.01.01c-.176.18-.31.306-.571.38-.261.073-.7.11-1.317.11H62.28Zm-8.187-.02v-6.48h3.572v.988h-2.642V15.7h2.642v.932h-2.642v1.917h2.642v1.037h-3.572Zm33.316-1.968-.984.2c.11.476.372 1.202.725 1.458.357.255.845.484 1.4.484.662 0 1.084-.18 1.472-.543.39-.365.584-.857.584-1.474 0-.424-.017-.881-.257-1.163-.24-.285-.683-.576-1.327-.873a9.25 9.25 0 0 1-.134-.062c-.736-.339-1.116-.537-1.116-.929 0-.25.095-.511.261-.66.159-.139.294-.139.544-.138h.053c.202 0 .36.067.515.162.158.095.302.245.432.45l.888-.454a1.457 1.457 0 0 0-.672-.797 2.218 2.218 0 0 0-1.163-.325c-.585 0-1.045.165-1.407.495-.36.33-.539.726-.539 1.257 0 .41.119.757.356 1.042.225.264.714.502 1.363.818l.14.067c.047.02.115.054.204.098.635.3.772.63.772 1.012 0 .294-.093.604-.28.78-.184.175-.33.262-.645.262-.332 0-.605-.076-.819-.227-.17-.123-.25-.462-.317-.742a3.193 3.193 0 0 0-.049-.198Z" fill="currentColor"/></svg>