<svg viewBox="0 0 568 385" xmlns="http://www.w3.org/2000/svg"><path d="M359.628 8.154c9.932-10.478 26.52-10.914 36.998-.983L551.272 154.07c21.718 20.627 21.718 55.332 0 75.959L396.626 376.925c-10.478 9.931-27.066 9.495-36.998-.982-9.931-10.477-9.495-27.066.983-36.997l154.646-146.898L360.611 45.151c-10.478-9.932-10.914-26.52-.983-36.997Zm-134.892-5.13C212.076 8.59 204 21.141 204 34.892V112H32c-17.673 0-32 14.327-32 32v96c0 17.673 14.327 32 32 32h172v77.204c0 13.752 8.185 26.193 20.736 31.868a34.663 34.663 0 0 0 37.543-5.893l174.618-157.156c7.312-6.658 11.568-16.043 11.568-25.975 0-9.931-4.256-19.317-11.568-25.974L262.279 8.917C252.02-.25 237.396-2.542 224.736 3.024Z" fill="currentColor"/></svg>