<svg viewBox="0 0 103 20" xmlns="http://www.w3.org/2000/svg"><path fill-rule="evenodd" clip-rule="evenodd" d="M0 20 17.022 0l-.304 3.296L5 20H0ZM4.155 4.515 2.978 7.756h6.039l2.188-3.24h-7.05Zm.43-1.219h7.451L14.252 0H5.776L4.584 3.296ZM28.517 0l-16.73 20h4.93l15.43-20h-3.629Zm-9.681 0L17.7 3.296h6.69L26.828 0h-7.991Zm6.73 12.216L26.55 9.1h3.975l-1.399 3.116h-3.56ZM91.4 9.89l-1.787 3.117h11.635l1.662-3.117H91.4ZM86.329 0l-7.922 12.133 1.44 2.825 3.186-4.556h2.77L79.626 20h3.684L96.371 0H86.33Zm1.497 3.393L85.11 7.59h2.382l2.66-4.197h-2.328ZM85.817 0h-5.665L69.17 10.97l-1.967 5.789 8.352-7.507L71.33 20h3.462l4.972-12.936H77.77L85.817 0ZM64.972 0l-.97 3.324h8.699L78.13 0H64.971Zm-3.684 5.706-.97 3.214h5.43L57.88 20h3.989L72.784 5.706H61.288Zm-32.825 8.67L37.659 0h3.823l-4.959 7.064h2.272L33.809 20h-2.66l3.63-10.166-3.906 5.678-2.41-1.135ZM42.16 0l-7.964 20h2.271l3.463-7.202.47 1.163L37.162 20h2.77l1.496-2.798.941 2.798h1.44l.692-2.5-1.411-3.373 4.93-8.42h-4.93l1.357-2.383h3.934L51.15 0h-8.99Zm-.319 8.504-.332.554.554 1.44 1.163-1.994h-1.385ZM51.745 0 50.36 3.324h3.878L52.23 5.706h-4.003L43.975 20H56.22l4.487-14.294H55.25l2.438-2.382h3.684L64.335 0h-12.59Zm-1.759 8.476-2.465 8.56h.858l2.383-8.56h-.776Zm3.601 8.532 2.493-8.532h.665l-2.382 8.532h-.776Zm-.582-8.615-.249.86h.873l.318-.86h-.942Zm-1.412 4.765.194-.914h.914l-.166.914h-.942Zm-.831 2.784-.25 1.094h.9l.278-1.094h-.928Z"/></svg>