<svg viewBox="0 0 548 619" xmlns="http://www.w3.org/2000/svg"><path d="M235.044 272.175h-72.893c-8.629 0-11.489-.459-15.906-1.787-11.923-3.523-21.217-15.447-21.217-29.591 0-14.145 9.294-26.042 21.192-29.617 4.442-1.302 7.302-1.736 15.931-1.736h47.259v-47.31c0-8.63.46-11.489 1.788-15.906 3.523-12.153 15.446-21.217 29.591-21.217 14.119 0 26.067 9.268 29.616 21.217 1.302 4.417 1.762 7.276 1.762 15.906v72.893c0 4.417 0 8.834-.894 12.817a32.263 32.263 0 0 1-23.412 23.412c-3.983.894-8.4.919-12.817.919ZM469.194 539.9H78.204V195.504c0-4.417 1.531-8.17 4.62-11.234L184.237 82.833a15.344 15.344 0 0 1 11.26-4.621h273.698V539.9ZM18.995 137.649C8.605 148.015 1.787 161.062.434 175.64c-.279 3.15-.424 6.31-.434 9.472v389.46c0 5.08.23 7.71.434 9.702 1.787 16.595 16.8 31.608 33.37 33.37 1.991.204 4.647.434 9.702.434h460.386c5.081 0 7.736-.23 9.702-.434 16.595-1.788 31.608-16.8 33.37-33.37.23-1.992.434-4.622.434-9.702V43.514c0-5.106-.204-7.736-.434-9.727-1.787-16.57-16.8-31.583-33.345-33.345a83.02 83.02 0 0 0-9.727-.434H185.104c-3.171.01-6.34.164-9.498.46-14.604 1.302-27.625 8.17-38.016 18.536L18.995 137.649Z" fill="currentColor"/></svg>