<svg width="97" height="20" viewBox="0 0 97 20" xmlns="http://www.w3.org/2000/svg">
<path d="M29.0838 13.298L24.9304 19.9478L20.7744 13.298H29.0838Z" fill="#69AEE0"/>
<path d="M16.6196 19.9478L20.7745 13.2975L24.9294 19.9478H16.6196Z" fill="#70B1E1"/>
<path d="M20.7737 13.298L16.6198 19.9478L12.4648 13.298H20.7737Z" fill="#92CAEF"/>
<path d="M8.31006 19.9478L12.465 13.2975L16.6199 19.9478H8.31006Z" fill="#92CAEF"/>
<path d="M0 19.9478L4.15493 13.298L8.30985 19.9482L0 19.9478Z" fill="#7EBAE6"/>
<path d="M33.2401 6.64978L29.0852 13.298L24.9297 6.64978H33.2401Z" fill="#85C1EB"/>
<path d="M20.7744 13.298L24.9288 6.64978L29.0832 13.298H20.7744Z" fill="#7EBAE6"/>
<path d="M24.9294 6.64978L20.7745 13.298L16.6196 6.64978H24.9294Z" fill="#7BB8E5"/>
<path d="M12.4648 13.298L16.6198 6.64978L20.7737 13.298H12.4648Z" fill="#85C1EB"/>
<path d="M16.6199 6.64978L12.465 13.298L8.31006 6.64978H16.6199Z" fill="#73B2E2"/>
<path d="M4.15479 13.298L8.3097 6.64978L12.4636 13.298H4.15479Z" fill="#67A0D3"/>
<path d="M24.9297 6.64973L29.0842 0L33.2396 6.65023L24.9297 6.64973Z" fill="#99D2F3"/>
<path d="M16.6196 6.64973L20.7745 0L24.9294 6.65023L16.6196 6.64973Z" fill="#82BEE9"/>
<path d="M8.31006 6.64973L12.465 0L16.6199 6.65023L8.31006 6.64973Z" fill="#73B2E2"/>
<path d="M12.4636 0L8.3097 6.64973L4.15479 0H12.4636Z" fill="#65A5DA"/>
<path d="M70.8292 12.6943V19.5855H71.8655V15.1814L76.6323 20V13.1088H75.5442V17.513L70.8292 12.6943ZM83.8767 15.4118C83.997 15.7052 84.0572 16.0149 84.0572 16.3406C84.0572 16.6634 83.997 16.9716 83.8767 17.2651C83.7593 17.5556 83.5891 17.8153 83.366 18.0442C83.1401 18.2731 82.8847 18.4478 82.6001 18.5681C82.3183 18.6884 82.0204 18.7486 81.7064 18.7486C81.3865 18.7486 81.0843 18.6884 80.7996 18.5681C80.5149 18.4478 80.2611 18.2731 80.038 18.0442C79.815 17.8153 79.6448 17.5556 79.5274 17.2651C79.41 16.9745 79.3513 16.6664 79.3513 16.3406C79.3513 16.0119 79.41 15.7008 79.5274 15.4074C79.6448 15.1139 79.815 14.8542 80.038 14.6282C80.2611 14.3993 80.5149 14.2247 80.7996 14.1043C81.0872 13.984 81.3895 13.9238 81.7064 13.9238C82.0234 13.9238 82.3242 13.9855 82.6089 14.1087C82.8965 14.2291 83.1489 14.4022 83.366 14.6282C83.5891 14.8571 83.7593 15.1183 83.8767 15.4118ZM84.8892 17.6392C85.0623 17.2313 85.1489 16.7984 85.1489 16.3406C85.1489 15.8857 85.0623 15.4543 84.8892 15.0464C84.7189 14.6355 84.4695 14.2672 84.1408 13.9415C83.8121 13.6216 83.4394 13.378 83.0227 13.2107C82.6089 13.0434 82.1701 12.9598 81.7064 12.9598C81.2398 12.9598 80.7981 13.0434 80.3814 13.2107C79.9647 13.378 79.5919 13.6216 79.2633 13.9415C78.9346 14.2643 78.6851 14.6297 78.5149 15.0376C78.3447 15.4455 78.2596 15.8799 78.2596 16.3406C78.2596 16.8043 78.3447 17.2386 78.5149 17.6436C78.6851 18.0486 78.9346 18.4111 79.2633 18.731C79.5861 19.0479 79.9573 19.293 80.377 19.4661C80.7996 19.6363 81.2427 19.7214 81.7064 19.7214C82.1642 19.7214 82.6015 19.6363 83.0183 19.4661C83.435 19.2959 83.8092 19.0508 84.1408 18.731C84.4695 18.4111 84.7189 18.0472 84.8892 17.6392ZM92.4386 13.1051V19.5855H96.0105V18.5493H93.3681V16.6322H96.0105V15.6995H93.3681V14.0933H96.0105V13.1051H92.4386ZM38.5391 15.8812H38.1385V14.0323H38.5391C38.9865 14.0323 39.0476 14.0833 39.1698 14.1853C39.1927 14.2044 39.2177 14.2253 39.2477 14.248C39.4385 14.3888 39.5339 14.6354 39.5339 14.9875C39.5339 15.3104 39.4297 15.5407 39.2213 15.6787C39.1836 15.7035 39.1535 15.726 39.1265 15.7462C39.0064 15.8362 38.9464 15.8812 38.5391 15.8812ZM38.4026 18.7293H38.1385V16.6735H38.4026H38.7196C38.9309 16.6735 39.0996 16.6853 39.2258 16.7088C39.3549 16.7322 39.4694 16.7689 39.5692 16.8188C39.7277 16.9039 39.8494 17.0228 39.9346 17.1754C40.0197 17.328 40.0622 17.507 40.0622 17.7125C40.0622 17.8856 40.027 18.0441 39.9566 18.1879C39.8861 18.3317 39.7863 18.4461 39.6572 18.5312C39.5516 18.6046 39.4078 18.656 39.2258 18.6853C39.0439 18.7147 38.7695 18.7293 38.4026 18.7293ZM37.1128 13.1088V19.6054H38.5923C39.2086 19.6054 39.6473 19.5687 39.9085 19.4953C40.1697 19.4219 40.3036 19.2957 40.4797 19.1167C40.4901 19.1064 40.5008 19.096 40.5116 19.0854C40.6732 18.9273 40.8665 18.7381 40.9518 18.518C41.0428 18.2833 41.0883 18.0353 41.0883 17.7741C41.0883 17.3427 40.9797 16.9861 40.7625 16.7044C40.5483 16.4197 40.0461 16.1962 39.6704 16.1375C39.9727 16.0465 40.1183 15.8866 40.2768 15.6577C40.4353 15.4258 40.4732 15.1796 40.4732 14.8362C40.4732 14.5486 40.4174 14.2859 40.3059 14.0482C40.1973 13.8105 40.0432 13.6183 39.8437 13.4715C39.8278 13.4599 39.812 13.4481 39.7962 13.4363C39.6572 13.3327 39.5174 13.2285 39.3171 13.1837C39.097 13.1338 38.7551 13.1088 38.2914 13.1088H37.1128ZM47.1523 13.1088H48.1868V17.3057C48.1868 17.8868 48.3203 18.0925 48.5874 18.386C48.8573 18.6765 49.0949 18.7565 49.629 18.7565C50.1602 18.7565 50.3126 18.6765 50.5796 18.386C50.8496 18.0925 50.9846 17.8868 50.9846 17.3057V13.1088H52.0323V17.171C52.0323 18.0426 51.7497 18.6331 51.3095 19.0674C50.8693 19.4988 50.5153 19.777 49.629 19.777C48.7427 19.777 48.308 19.4988 47.8707 19.0674C47.4334 18.636 47.1523 18.0455 47.1523 17.171V13.1088ZM42.7981 19.6054V13.1607H43.8458V18.6011H45.7515V19.6054H42.7981ZM63.3057 15.8812H63.7063C64.1136 15.8812 64.1736 15.8362 64.2937 15.7462C64.3207 15.726 64.3508 15.7035 64.3885 15.6787C64.5969 15.5407 64.701 15.3104 64.701 14.9875C64.701 14.6354 64.6057 14.3888 64.4149 14.248C64.3848 14.2253 64.3598 14.2044 64.337 14.1853C64.2148 14.0833 64.1537 14.0323 63.7063 14.0323H63.3057V15.8812ZM63.3057 18.7293H63.5698C63.9366 18.7293 64.211 18.7147 64.393 18.6853C64.5749 18.656 64.7187 18.6046 64.8244 18.5312C64.9535 18.4461 65.0533 18.3317 65.1237 18.1879C65.1942 18.0441 65.2294 17.8856 65.2294 17.7125C65.2294 17.507 65.1868 17.328 65.1017 17.1754C65.0166 17.0228 64.8948 16.9039 64.7364 16.8188C64.6366 16.7689 64.5221 16.7322 64.393 16.7088C64.2668 16.6853 64.098 16.6735 63.8867 16.6735H63.5698H63.3057V18.7293ZM62.28 19.6054V13.1088H63.4586C63.9223 13.1088 64.2642 13.1338 64.4843 13.1837C64.6846 13.2285 64.8244 13.3327 64.9634 13.4363L64.9636 13.4365L64.9637 13.4366L64.9638 13.4366C64.9794 13.4483 64.9951 13.46 65.0109 13.4715C65.2104 13.6183 65.3645 13.8105 65.4731 14.0482C65.5846 14.2859 65.6404 14.5486 65.6404 14.8362C65.6404 15.1796 65.6025 15.4258 65.444 15.6577C65.2855 15.8866 65.1399 16.0465 64.8376 16.1375C65.2133 16.1962 65.7154 16.4197 65.9297 16.7044C66.1469 16.9861 66.2554 17.3427 66.2554 17.7741C66.2554 18.0353 66.21 18.2833 66.119 18.518C66.0337 18.7381 65.8404 18.9273 65.6788 19.0854L65.6774 19.0868L65.6578 19.106L65.6468 19.1167C65.4707 19.2957 65.3369 19.4219 65.0757 19.4953C64.8145 19.5687 64.3757 19.6054 63.7594 19.6054H62.28ZM54.0934 19.5855V13.1051H57.6653V14.0933H55.0228V15.6995H57.6653V16.6322H55.0228V18.5493H57.6653V19.5855H54.0934ZM87.4095 17.6166L86.425 17.8178C86.5349 18.2928 86.7972 19.0194 87.1504 19.2746C87.5067 19.5299 87.9947 19.7592 88.5498 19.7592C89.2118 19.7592 89.6336 19.5781 90.0224 19.216C90.4113 18.8508 90.6057 18.3595 90.6057 17.7421C90.6057 17.3176 90.5891 16.8607 90.3487 16.5787C90.1083 16.2938 89.666 16.0028 89.0218 15.706C88.9891 15.6912 88.9446 15.6704 88.8882 15.6437C88.152 15.3052 87.7722 15.1069 87.7722 14.7151C87.7722 14.4657 87.8671 14.2037 88.0333 14.0552C88.1918 13.9162 88.3268 13.9165 88.5775 13.9171C88.5945 13.9172 88.6119 13.9172 88.63 13.9172C88.8318 13.9172 88.9909 13.9837 89.1453 14.0787C89.3026 14.1737 89.4466 14.3236 89.5772 14.5285L90.4653 14.0747C90.3406 13.7274 90.1165 13.4617 89.7929 13.2776C89.4694 13.0906 89.1108 12.9534 88.63 12.9534C88.0452 12.9534 87.585 13.1182 87.2229 13.4477C86.8637 13.7772 86.6841 14.174 86.6841 14.7053C86.6841 15.115 86.8029 15.4623 87.0403 15.7473C87.2651 16.0108 87.754 16.2487 88.4034 16.5646C88.4489 16.5868 88.4951 16.6092 88.5421 16.6322C88.5896 16.6529 88.6579 16.6856 88.7469 16.7301C89.3822 17.0299 89.5193 17.3592 89.5193 17.7421C89.5193 18.036 89.4258 18.3462 89.2388 18.5213C89.0547 18.6965 88.909 18.784 88.5943 18.784C88.2619 18.784 87.9888 18.7083 87.775 18.5569C87.6047 18.4339 87.5246 18.0945 87.4585 17.8145C87.4417 17.7432 87.4258 17.6757 87.4095 17.6166Z" fill="currentColor"/>
</svg>
