<svg width="568" height="385" viewBox="0 0 568 385" xmlns="http://www.w3.org/2000/svg">
<path d="M359.628 8.15354C369.56 -2.32354 386.148 -2.76009 396.626 7.17131L551.272 154.069C572.99 174.696 572.99 209.401 551.272 230.028L396.626 376.925C386.148 386.856 369.56 386.42 359.628 375.943C349.697 365.466 350.133 348.877 360.611 338.946L515.257 192.048L360.611 45.1507C350.133 35.2193 349.697 18.6306 359.628 8.15354ZM224.736 3.02411C212.076 8.59006 204 21.1407 204 34.8919V104.739V112H32C14.3269 112 0 126.327 0 144V240C0 257.673 14.3269 272 32 272H204V279.357V349.204C204 362.956 212.185 375.397 224.736 381.072C237.287 386.747 252.02 384.455 262.279 375.179L436.897 218.023C444.209 211.365 448.465 201.98 448.465 192.048C448.465 182.117 444.209 172.731 436.897 166.074L262.279 8.91747C252.02 -0.249976 237.396 -2.54184 224.736 3.02411Z" fill="currentColor"/>
</svg>
