<svg viewBox="0 0 24 24" xmlns="http://www.w3.org/2000/svg">
<path d="M3 6.94427C3 6.42277 3.42276 6 3.94427 6H20.0557C20.5772 6 21 6.42277 21 6.94427C21 7.46578 20.5772 7.88854 20.0557 7.88854H3.94427C3.42276 7.88854 3 7.46578 3 6.94427ZM3 12.4993C3 11.9778 3.42276 11.555 3.94427 11.555H20.0557C20.5772 11.555 21 11.9778 21 12.4993C21 13.0208 20.5772 13.4435 20.0557 13.4435H3.94427C3.42276 13.4435 3 13.0208 3 12.4993ZM3.94427 17.11C3.42276 17.11 3 17.5328 3 18.0543C3 18.5758 3.42276 18.9985 3.94427 18.9985H20.0557C20.5772 18.9985 21 18.5758 21 18.0543C21 17.5328 20.5772 17.11 20.0557 17.11H3.94427Z" fill="currentColor"/>
</svg>
