<svg viewBox="0 0 24 24" xmlns="http://www.w3.org/2000/svg">
<path d="M5.18474 3.37484C4.68496 2.87505 3.87464 2.87505 3.37486 3.37484C2.87507 3.87463 2.87507 4.68494 3.37486 5.18473L10.1901 12L3.37484 18.8153C2.87505 19.315 2.87505 20.1254 3.37484 20.6252C3.87463 21.1249 4.68494 21.1249 5.18472 20.6252L12 13.8099L18.8153 20.6251C19.3151 21.1249 20.1254 21.1249 20.6252 20.6251C21.1249 20.1254 21.1249 19.315 20.6252 18.8153L13.8099 12L20.6251 5.18473C21.1249 4.68494 21.1249 3.87463 20.6251 3.37484C20.1254 2.87506 19.315 2.87506 18.8153 3.37484L12 10.1901L5.18474 3.37484Z" fill="currentColor"/>
</svg>
