<svg width="122" height="20" viewBox="0 0 122 20" xmlns="http://www.w3.org/2000/svg">
<path d="M2.80076 9.98869C-0.0714688 13.4673 7.18873 19.9772 8.3996 15.2862C9.15545 12.1061 5.67601 7.26078 2.49993 10.1389"/>
<path d="M14.9507 1.25092C15.1018 -0.412746 13.5901 -0.261504 12.8343 0.797193L12.532 0.645952C12.8163 0.993813 13.2053 1.24058 13.6411 1.34957C14.0768 1.45857 14.5361 1.42397 14.9507 1.25092ZM8.45536 2.64438C9.60325 2.08176 10.793 1.59325 11.9958 1.10473C10.7122 1.33017 9.45484 1.68573 8.24323 2.16595C7.0158 2.64241 5.8551 3.27565 4.79 4.04992C4.52494 4.24805 4.26492 4.45425 4.01751 4.67607C3.77009 4.89789 3.53024 5.12879 3.3045 5.3738C2.84905 5.86252 2.45386 6.40414 2.12738 6.98705C1.80281 7.56909 1.56288 8.19447 1.41487 8.84431C1.34241 9.16589 1.2944 9.4925 1.27126 9.82134C1.26017 9.98518 1.25211 10.1485 1.25412 10.3119C1.25614 10.4752 1.26118 10.638 1.27579 10.7999C1.29998 10.6391 1.32417 10.4797 1.3544 10.3209C1.38464 10.1621 1.41688 10.0053 1.45518 9.84957C1.52968 9.54014 1.62155 9.23516 1.73031 8.93606C1.94584 8.3454 2.22997 7.78211 2.57686 7.25778C3.28494 6.22166 4.16866 5.31739 5.18808 4.58583C6.21562 3.8402 7.30928 3.19033 8.45536 2.64438ZM1.03204 15.0274C1.06585 14.8468 1.09984 14.6653 1.12514 14.4811C0.732394 15.1765 0.422558 15.9156 0.201989 16.6832C0.14908 16.8763 0.102221 17.0779 0.0679557 17.2796C0.0311351 17.4856 0.00907054 17.694 0.00193688 17.9032C-0.00634013 18.1244 0.0119312 18.3458 0.0563607 18.5626C0.0814832 18.6795 0.118295 18.7935 0.166222 18.9029C0.178817 18.9312 0.191914 18.9594 0.206526 18.9871L0.228698 19.029L0.249862 19.0663C0.280782 19.1194 0.314423 19.1709 0.350647 19.2205C0.494419 19.4148 0.676558 19.5775 0.885779 19.6985C1.08563 19.8107 1.30171 19.8911 1.52625 19.9369C1.73782 19.9801 1.9533 20.0012 2.16923 19.9999C2.27505 19.9999 2.37985 19.9969 2.48315 19.9884C2.58645 19.9798 2.69025 19.9682 2.79103 19.9541C3.19166 19.8941 3.58567 19.7961 3.96765 19.6612C4.15661 19.5926 4.34154 19.5215 4.52496 19.4414C4.70838 19.3612 4.88675 19.2745 5.06111 19.1772C4.88513 19.2009 4.71155 19.2271 4.53858 19.2531L4.47356 19.2629C4.27906 19.2921 4.08555 19.3189 3.89256 19.3426C3.51301 19.3931 3.131 19.4231 2.74821 19.4323C2.3852 19.4451 2.02217 19.4078 1.66936 19.3214C1.50973 19.2807 1.35693 19.2169 1.21585 19.1318C1.08556 19.0545 0.972257 18.9516 0.882766 18.8293C0.860594 18.8001 0.838417 18.7658 0.821285 18.7376L0.803646 18.7073L0.791051 18.6846C0.785845 18.6733 0.78064 18.6623 0.775568 18.6516C0.772784 18.6457 0.770044 18.6399 0.767368 18.6342C0.736161 18.564 0.711366 18.4911 0.693296 18.4164C0.653821 18.2493 0.632528 18.0784 0.629802 17.9068C0.625766 17.5336 0.652731 17.1608 0.710424 16.7921C0.765857 16.413 0.837911 16.0318 0.911982 15.6477L1.02436 15.0684L1.03204 15.0274ZM5.22033 7.49676C5.37553 7.34514 5.54419 7.20795 5.72424 7.08689C5.9061 6.96575 6.09658 6.85808 6.29415 6.76474C6.69273 6.57917 7.11212 6.44207 7.54332 6.35639C8.41124 6.18802 9.30157 6.16961 10.1757 6.30194C10.6145 6.3654 11.0475 6.46369 11.4707 6.59586C11.8972 6.72729 12.3113 6.89598 12.7083 7.1C13.1104 7.30649 13.4892 7.55562 13.838 7.84311C14.1935 8.13646 14.5055 8.47883 14.7647 8.85996C14.8939 9.05414 15.0062 9.25907 15.1003 9.47249C15.3884 10.1209 15.4802 10.8395 15.3644 11.5395C15.2888 11.9937 15.1444 12.4336 14.936 12.8442C14.8352 13.0461 14.7224 13.2419 14.5984 13.4305C14.4748 13.617 14.342 13.7972 14.2004 13.9704C13.6357 14.6503 12.9627 15.2322 12.2084 15.6926C11.8371 15.9219 11.4473 16.1198 11.0429 16.2839C10.8413 16.3646 10.6363 16.4352 10.4286 16.4992C10.2213 16.5602 10.0105 16.6085 9.79727 16.6439C10.5988 16.3554 11.3503 15.9432 12.0245 15.4224C12.6954 14.9207 13.2896 14.3237 13.7882 13.6503C13.9096 13.4834 14.023 13.311 14.1263 13.1346C14.2302 12.9596 14.3241 12.7788 14.4074 12.5931C14.5733 12.2296 14.6857 11.844 14.741 11.4482C14.8211 10.8675 14.7368 10.2759 14.4977 9.74069C14.4173 9.56166 14.3219 9.3898 14.2124 9.22697C13.9896 8.89637 13.7216 8.59856 13.4163 8.3422C13.1062 8.07889 12.77 7.84797 12.413 7.65305C10.9378 6.86157 9.26267 6.52113 7.59571 6.674C7.17733 6.71627 6.76455 6.80244 6.36418 6.93111C6.16293 6.99655 5.96659 7.07624 5.77664 7.16957C5.58276 7.26359 5.39673 7.373 5.22033 7.49676ZM9.21729 18.6004C9.24724 18.6069 9.27751 18.6118 9.30798 18.615L9.30494 18.4406L9.30193 18.2813C9.25125 18.2116 9.20594 18.1381 9.16639 18.0615C9.08364 17.9018 9.00996 17.7375 8.94568 17.5695C8.9293 17.5285 8.91303 17.4871 8.89664 17.4454L8.89663 17.4454L8.89661 17.4453C8.84443 17.3126 8.79098 17.1767 8.72849 17.0401C8.68668 16.948 8.63975 16.8583 8.5879 16.7714C8.53615 16.7414 8.48207 16.7156 8.42616 16.6943C8.39744 16.6837 8.3692 16.6741 8.34047 16.666C8.31094 16.6584 8.281 16.6525 8.25079 16.6484V16.7371V16.8203C8.24928 16.8768 8.24777 16.9272 8.24424 16.9776C8.28827 17.0516 8.32814 17.128 8.36366 17.2065C8.42141 17.3327 8.47388 17.4664 8.52764 17.6034C8.53468 17.6213 8.54175 17.6393 8.54885 17.6574C8.55292 17.6677 8.55701 17.6781 8.56112 17.6885C8.56482 17.6979 8.56855 17.7073 8.57228 17.7167C8.64216 17.8987 8.72225 18.0766 8.81214 18.2496C8.85459 18.3308 8.90379 18.4091 8.95356 18.4883L8.96733 18.5102C9.02003 18.5368 9.07481 18.559 9.13111 18.5767C9.15972 18.5853 9.18835 18.5928 9.21696 18.6003L9.21729 18.6004ZM7.34178 17.5544C7.35733 17.559 7.37153 17.5645 7.38558 17.5699L7.38562 17.5699C7.39432 17.5732 7.40295 17.5765 7.41181 17.5796L7.47529 17.6043C7.51762 17.6204 7.55592 17.6371 7.59321 17.6547C7.60621 17.6948 7.62359 17.7333 7.64112 17.7722C7.64806 17.7875 7.65502 17.803 7.66173 17.8185C7.71204 17.9273 7.76588 18.0365 7.82072 18.1477L7.82099 18.1483C7.82686 18.1602 7.83275 18.1721 7.83866 18.184L7.85191 18.2108L7.85192 18.2108C7.89705 18.302 7.94283 18.3944 7.98627 18.4896C8.01298 18.548 8.03918 18.6075 8.06386 18.668C8.03422 18.7565 7.99413 18.8411 7.94444 18.9201C7.87025 18.8943 7.80786 18.8679 7.74626 18.8419C7.72836 18.8343 7.71052 18.8268 7.69249 18.8193C7.67032 18.7648 7.64613 18.7104 7.62145 18.6559C7.57105 18.547 7.51663 18.4371 7.46121 18.3262C7.40578 18.2153 7.34934 18.1014 7.29593 17.9844C7.28275 17.9566 7.2707 17.9283 7.2586 17.8999L7.25853 17.8998L7.25844 17.8995C7.24515 17.8684 7.23179 17.837 7.21679 17.8059C7.23083 17.7634 7.24768 17.7218 7.2672 17.6814L7.29894 17.6184C7.30718 17.6071 7.31411 17.5963 7.321 17.5855L7.32107 17.5854C7.32764 17.5751 7.33417 17.5649 7.34178 17.5544Z" fill="#2C6C60"/>
<path fill-rule="evenodd" clip-rule="evenodd" d="M19 20L36.0222 0L35.7175 3.2964L24 20H19ZM23.1551 4.51524L21.9778 7.75623H28.0166L30.205 4.51524H23.1551ZM23.5845 3.2964H31.036L33.2521 0H24.7756L23.5845 3.2964ZM47.518 0L30.7867 20H35.7175L51.1468 0H47.518ZM37.8366 0L36.7008 3.2964H43.3906L45.8283 0H37.8366ZM44.5679 12.2161L45.5512 9.09972H49.5263L48.1274 12.2161H44.5679ZM110.399 9.8892L108.612 13.0055H120.247L121.909 9.8892H110.399ZM105.33 0L97.4072 12.133L98.8476 14.9584L102.033 10.4017H104.803L98.626 20H102.31L115.371 0H105.33ZM106.825 3.39335L104.111 7.59003H106.493L109.152 3.39335H106.825ZM104.817 0H99.1524L88.169 10.9695L86.2022 16.759L94.554 9.25208L90.3296 20H93.7922L98.7645 7.06371H96.7701L104.817 0ZM83.9723 0L83.0028 3.3241H91.7008L97.1302 0H83.9723ZM80.2881 5.70637L79.3186 8.91967H84.7479L76.8809 20H80.8698L91.7839 5.70637H80.2881ZM47.4626 14.3767L56.6593 0H60.482L55.5235 7.06371H57.795L52.8089 20H50.1496L53.7784 9.83379L49.8726 15.5125L47.4626 14.3767ZM61.1607 0L53.1967 20H55.4681L58.9307 12.7978L59.4017 13.9612L56.1607 20H57.4349H57.8781H58.9307L60.4266 17.2022L61.3684 20H62.8089L63.5 17.5L62.0886 14.1274L67.0194 5.70637H62.0886L63.446 3.3241H67.3795L70.1496 0H61.1607ZM60.8421 8.50416L60.5097 9.05817L61.0637 10.4986L62.2271 8.50416H60.8421ZM70.7452 0L69.3601 3.3241H73.2382L71.2299 5.70637H67.2271L62.9751 20H75.2188L79.7064 5.70637H74.2493L76.687 3.3241H80.3712L83.3352 0H70.7452ZM68.9861 8.47645L66.5208 17.036H67.3795L69.7618 8.47645H68.9861ZM72.5873 17.0083L75.0803 8.47645H75.7452L73.3629 17.0083H72.5873ZM72.0055 8.39335L71.7562 9.25208H72.6288L72.9474 8.39335H72.0055ZM70.5928 13.1579L70.7867 12.2438H71.7008L71.5346 13.1579H70.5928ZM69.7618 15.9418L69.5125 17.036H70.4127L70.6898 15.9418H69.7618Z" fill="currentColor"/>
</svg>
