<svg width="63" height="20" viewBox="0 0 63 20" xmlns="http://www.w3.org/2000/svg">
<path d="M20 0H19.0748L10.5742 8.5006L11.6128 9.5392L12.2606 8.89136L12.6944 9.32517L12.0466 9.973L18.773 16.6994V2.45396L20 1.22697V0ZM20 19.1411L11.4392 10.5803L10.5189 11.5006L12.0599 13.0415L11.4525 13.6489L9.91161 12.108L3.24657 18.773H17.6513L18.8783 20H20V19.1411ZM1.15196 20L9.47781 11.6742L8.43921 10.6356L7.91846 11.1563L7.48465 10.7225L8.0054 10.2018L1.22699 3.42335L1.22699 17.6512L0 18.8782V20H1.15196ZM0 0.98169L8.61273 9.59442L9.53303 8.67412L7.94016 7.08125L8.54749 6.47392L10.1404 8.06679L16.9802 1.22699L2.45398 1.22699L1.22699 9.03442e-07L18.2072 0H0V0.98169ZM9.96684 9.10793L11.0054 10.1465L10.0851 11.0668L9.04654 10.0282L9.96684 9.10793Z" fill="#FBFBD5"/>
<path d="M25.7334 16.9715C25.7334 17.0972 25.8172 17.181 25.9429 17.181H26.1734C26.2991 17.181 26.3829 17.0972 26.3829 16.9715V4.33716H26.4458L34.282 16.9715C34.3867 17.16 34.5125 17.181 34.6382 17.181H34.8267C34.9525 17.181 35.0363 17.0972 35.0363 16.9715V3.14287C35.0363 3.01716 34.9525 2.93335 34.8267 2.93335H34.5963C34.4705 2.93335 34.3867 3.01716 34.3867 3.14287V15.7772H34.3239L26.4877 3.14287C26.3829 2.9543 26.2572 2.93335 26.1315 2.93335H25.9429C25.8172 2.93335 25.7334 3.01716 25.7334 3.14287V16.9715ZM62.4915 17.181C62.6172 17.181 62.701 17.0972 62.701 16.9715V16.7829C62.701 16.6572 62.6172 16.5734 62.4915 16.5734H54.5506V16.5524L62.5963 3.62478C62.6801 3.49906 62.701 3.43621 62.701 3.33144V3.14287C62.701 3.01716 62.6172 2.93335 62.4915 2.93335H54.2363C54.1106 2.93335 54.0268 3.01716 54.0268 3.14287V3.33144C54.0268 3.45716 54.1106 3.54097 54.2363 3.54097H61.8839V3.56192L53.8591 16.4686C53.7753 16.5943 53.7334 16.6781 53.7334 16.7829V16.9715C53.7334 17.0972 53.8172 17.181 53.9429 17.181H62.4915ZM49.5871 16.9715C49.6499 17.0762 49.608 17.181 49.4823 17.181H49.1052C48.9794 17.181 48.9166 17.1181 48.8537 17.0134L44.8518 10.2667H44.8309L40.808 17.0134C40.7451 17.1181 40.6823 17.181 40.5566 17.181H40.2004C40.0747 17.181 40.0328 17.0762 40.0956 16.9715L44.4747 9.65907L40.5775 3.14287C40.5147 3.03811 40.5566 2.93335 40.6823 2.93335H41.0594C41.1851 2.93335 41.248 2.99621 41.3109 3.10097L44.8309 9.05145H44.8518L48.3928 3.10097C48.4556 2.99621 48.5185 2.93335 48.6442 2.93335H49.0004C49.1261 2.93335 49.168 3.03811 49.1052 3.14287L45.208 9.65907L49.5871 16.9715Z" fill="currentColor"/>
</svg>
