<svg width="103" height="20" viewBox="0 0 103 20" xmlns="http://www.w3.org/2000/svg">
<path fill-rule="evenodd" clip-rule="evenodd" d="M0 20L17.0222 0L16.7175 3.2964L5 20H0ZM4.15512 4.51524L2.97784 7.75623H9.01662L11.205 4.51524H4.15512ZM4.58449 3.2964H12.036L14.2521 0H5.77562L4.58449 3.2964ZM28.518 0L11.7867 20H16.7175L32.1468 0H28.518ZM18.8366 0L17.7008 3.2964H24.3906L26.8283 0H18.8366ZM25.5679 12.2161L26.5512 9.09972H30.5263L29.1274 12.2161H25.5679ZM91.3989 9.8892L89.6122 13.0055H101.247L102.909 9.8892H91.3989ZM86.3296 0L78.4072 12.133L79.8476 14.9584L83.0332 10.4017H85.8033L79.626 20H83.3102L96.3712 0H86.3296ZM87.8255 3.39335L85.1108 7.59003H87.4931L90.1524 3.39335H87.8255ZM85.8172 0H80.1524L69.169 10.9695L67.2022 16.759L75.554 9.25208L71.3296 20H74.7922L79.7645 7.06371H77.7701L85.8172 0ZM64.9723 0L64.0028 3.3241H72.7008L78.1302 0H64.9723ZM61.2881 5.70637L60.3186 8.91967H65.7479L57.8809 20H61.8698L72.7839 5.70637H61.2881ZM28.4626 14.3767L37.6593 0H41.482L36.5235 7.06371H38.795L33.8089 20H31.1496L34.7784 9.83379L30.8726 15.5125L28.4626 14.3767ZM42.1607 0L34.1967 20H36.4681L39.9307 12.7978L40.4017 13.9612L37.1607 20H38.4349H38.8781H39.9307L41.4266 17.2022L42.3684 20H43.8089L44.5 17.5L43.0886 14.1274L48.0194 5.70637H43.0886L44.446 3.3241H48.3795L51.1496 0H42.1607ZM41.8421 8.50416L41.5097 9.05817L42.0637 10.4986L43.2271 8.50416H41.8421ZM51.7452 0L50.3601 3.3241H54.2382L52.2299 5.70637H48.2271L43.9751 20H56.2188L60.7064 5.70637H55.2493L57.687 3.3241H61.3712L64.3352 0H51.7452ZM49.9861 8.47645L47.5208 17.036H48.3795L50.7618 8.47645H49.9861ZM53.5873 17.0083L56.0803 8.47645H56.7452L54.3629 17.0083H53.5873ZM53.0055 8.39335L52.7562 9.25208H53.6288L53.9474 8.39335H53.0055ZM51.5928 13.1579L51.7867 12.2438H52.7008L52.5346 13.1579H51.5928ZM50.7618 15.9418L50.5125 17.036H51.4127L51.6898 15.9418H50.7618Z"/>
</svg>
