<svg viewBox="0 0 443 512" xmlns="http://www.w3.org/2000/svg">
<path d="M179.914 41.5531C179.914 30.5325 184.291 19.9633 192.082 12.1706C199.872 4.3779 210.438 0 221.457 0C232.475 0 243.042 4.3779 250.833 12.1706C258.623 19.9633 263 30.5325 263 41.5531C263 52.5736 258.623 63.1429 250.833 70.9356C243.042 78.7283 232.475 83.1062 221.457 83.1062C210.438 83.1062 199.872 78.7283 192.082 70.9356C184.291 63.1429 179.914 52.5736 179.914 41.5531ZM221.457 276.5H159.142V222.396L134.389 263.602C126.514 276.674 109.463 280.916 96.3945 273.038C83.3257 265.161 79.0845 248.107 86.9604 235.035L137.418 151.063C152.478 126.044 179.481 110.722 208.647 110.722H234.353C263.519 110.722 290.522 126.044 305.582 151.063L356.04 235.035C363.916 248.107 359.674 265.161 346.605 273.038C333.537 280.916 316.487 276.674 308.611 263.602L283.771 222.396V276.5H221.457ZM-0.000488281 435.828V435.879V435.927V435.949C0.0332031 454.422 13.4219 467.115 25.1714 474.804C37.8872 483.109 54.8413 489.769 73.9585 495.046C112.625 505.685 164.698 512 221.443 512C278.188 512 330.262 505.685 368.842 495.046C387.959 489.769 405 483.109 417.629 474.804C429.188 467.295 442.147 455.012 442.777 437.232H442.887V228.052C442.887 220.843 437.043 215 429.835 215C422.627 215 416.784 220.843 416.784 228.052V396.435C413.546 394.369 410.139 392.464 406.643 390.7C398.706 386.697 389.53 383.072 379.369 379.835V329.052C379.369 321.843 373.525 316 366.317 316C359.109 316 353.266 321.843 353.266 329.052V372.822C347.593 371.54 341.731 370.353 335.711 369.261C324.466 367.186 313.653 374.707 311.578 385.946C311.318 387.347 311.209 388.742 311.237 390.114C311.425 399.759 318.422 408.283 328.273 410.101C354.396 414.859 374.724 421.173 387.959 427.834C390.727 429.218 392.976 430.516 394.792 431.727C396.321 432.746 397.1 434.266 397.127 435.795C397.138 437.362 396.36 438.933 394.792 439.977C387.18 444.905 374.81 450.178 357.596 454.933C345.909 458.189 332.496 461.043 317.716 463.383V448.081C317.716 440.872 311.872 435.029 304.664 435.029C297.456 435.029 291.612 440.872 291.612 448.081V466.818C270.016 469.124 246.344 470.408 221.443 470.408C193.388 470.408 166.894 468.778 143.133 465.894V450.719C143.133 443.51 137.29 437.667 130.082 437.667C122.873 437.667 117.03 443.51 117.03 450.719V462.035C105.362 459.976 94.6333 457.588 85.0303 454.933C67.8164 450.178 55.4468 444.905 47.835 439.977C46.2896 438.948 45.5112 437.407 45.4995 435.863C45.5049 434.311 46.2832 432.761 47.835 431.727C49.6514 430.516 51.9868 429.218 54.6685 427.834C67.9033 421.173 88.231 414.945 114.354 410.101H114.441C124.485 408.247 131.562 399.422 131.479 389.545C131.475 388.946 131.445 388.343 131.387 387.738V333.552C131.387 326.343 125.543 320.5 118.335 320.5C111.127 320.5 105.283 326.343 105.283 333.552V369.577C77.9678 374.656 53.9482 381.724 36.0703 390.7C32.6367 392.433 29.2891 394.301 26.103 396.324L26.1035 354.552C26.1035 347.343 20.2598 341.5 13.0518 341.5C5.84326 341.5 0 347.343 0 354.552L-0.000488281 435.828ZM143.133 367.188C143.133 359.98 148.977 354.136 156.185 354.136H286.702C293.91 354.136 299.753 359.98 299.753 367.188C299.753 374.396 293.91 380.24 286.702 380.24H156.185C148.977 380.24 143.133 374.396 143.133 367.188ZM156.185 406.343C148.977 406.343 143.133 412.186 143.133 419.395C143.133 426.603 148.977 432.446 156.185 432.446H286.702C293.91 432.446 299.753 426.603 299.753 419.395C299.753 412.186 293.91 406.343 286.702 406.343H156.185ZM26.103 296.948C26.103 304.157 20.2593 310 13.0513 310C5.84277 310 -0.000488281 304.157 -0.000488281 296.948C-0.000488281 289.74 5.84277 283.897 13.0513 283.897C20.2593 283.897 26.103 289.74 26.103 296.948ZM429.835 184.029C437.043 184.029 442.887 178.186 442.887 170.977C442.887 163.769 437.043 157.926 429.835 157.926C422.627 157.926 416.784 163.769 416.784 170.977C416.784 178.186 422.627 184.029 429.835 184.029ZM156.052 303.207C148.844 303.207 143 309.05 143 316.259C143 323.467 148.844 329.31 156.052 329.31H286.569C293.777 329.31 299.621 323.467 299.621 316.259C299.621 309.05 293.777 303.207 286.569 303.207H156.052Z"/>
</svg>
